<svg xmlns="http://www.w3.org/2000/svg" xmlns:xlink="http://www.w3.org/1999/xlink" version="1.1" x="0" y="0" width="400" height="400" viewBox="0 0 400 400"><svg xmlns="http://www.w3.org/2000/svg" xmlns:xlink="http://www.w3.org/1999/xlink" version="1.1" x="8.5" y="8.5" width="383" height="383"><g clip-path="url(#42clipPath)"><circle  id="42containerShape" cx="191.5" cy="191.5" r="191.5" stroke="#ffffff" stroke-width="0" fill="#ffffff" /><defs>
                <clipPath id="42clipPath">
                    <use xlink:href="#42containerShape" />
                </clipPath>
            </defs><rect x="65.97058823529412" y="65.97058823529412" width="251.05882352941174" height="251.05882352941174" fill="#ffffff" shape-rendering="crispEdges"/><svg x="0" y="0" width="383" height="383" viewBox="0 0 766 766"><path transform="rotate(19.923100296842023,266.37399777555146,704.7703779423192)" fill="#000000" stroke="#000000" d="M264.03 711.32L262.06 711.32L262.06 698.22L266.73 698.22Q268.25 698.22 269.26 698.78Q270.26 699.34 270.76 700.30Q271.26 701.26 271.26 702.46L271.26 702.46Q271.26 703.67 270.76 704.63Q270.25 705.59 269.25 706.15Q268.24 706.71 266.72 706.71L266.72 706.71L263.51 706.71L263.51 705.04L266.54 705.04Q267.51 705.04 268.11 704.70Q268.71 704.37 268.99 703.79Q269.27 703.20 269.27 702.46L269.27 702.46Q269.27 701.72 268.99 701.15Q268.71 700.57 268.10 700.24Q267.50 699.92 266.51 699.92L266.51 699.92L264.03 699.92L264.03 711.32Z"/><path transform="rotate(17.787773901542355,278.4440974856739,708.8924113344997)" fill="#000000" stroke="#000000" d="M276.05 715.44L274.08 715.44L274.08 702.35L278.74 702.35Q280.27 702.35 281.27 702.87Q282.28 703.40 282.78 704.32Q283.28 705.24 283.28 706.45L283.28 706.45Q283.28 707.65 282.77 708.56Q282.27 709.47 281.27 709.98Q280.26 710.48 278.74 710.48L278.74 710.48L275.20 710.48L275.20 708.78L278.56 708.78Q279.52 708.78 280.12 708.51Q280.73 708.23 281.01 707.71Q281.29 707.19 281.29 706.45L281.29 706.45Q281.29 705.71 281.00 705.17Q280.72 704.62 280.12 704.33Q279.51 704.04 278.53 704.04L278.53 704.04L276.05 704.04L276.05 715.44ZM278.35 709.53L280.54 709.53L283.78 715.44L281.53 715.44L278.35 709.53Z"/><path transform="rotate(16.32340775296612,286.80649920381296,711.4579286919011)" fill="#000000" stroke="#000000" d="M285.82 704.91L287.79 704.91L287.79 718.00L285.82 718.00L285.82 704.91Z"/><path transform="rotate(14.695299676405932,296.1774868878397,714.0583811548784)" fill="#000000" stroke="#000000" d="M290.33 707.51L292.46 707.51L296.10 718.17L296.25 718.17L299.89 707.51L302.03 707.51L297.32 720.60L295.04 720.60L290.33 707.51Z"/><path transform="rotate(12.64125591813426,308.09911697802875,716.9575695182383)" fill="#000000" stroke="#000000" d="M308.05 712.79L304.34 723.50L302.25 723.50L306.96 710.41L309.24 710.41L313.95 723.50L311.85 723.50L308.15 712.79L308.05 712.79ZM304.70 720.04L304.70 718.38L311.50 718.38L311.50 720.04L304.70 720.04Z"/><path transform="rotate(10.406374061588263,321.1791511665978,719.6243947867083)" fill="#000000" stroke="#000000" d="M326.87 717.34L326.87 717.34L324.88 717.34Q324.76 716.70 324.45 716.21Q324.14 715.73 323.68 715.39Q323.23 715.05 322.67 714.88Q322.11 714.70 321.48 714.70L321.48 714.70Q320.35 714.70 319.46 715.27Q318.57 715.84 318.05 716.94Q317.54 718.04 317.54 719.62L317.54 719.62Q317.54 721.22 318.05 722.32Q318.57 723.42 319.46 723.98Q320.36 724.55 321.48 724.55L321.48 724.55Q322.10 724.55 322.66 724.38Q323.22 724.21 323.67 723.88Q324.12 723.54 324.44 723.06Q324.76 722.58 324.88 721.95L324.88 721.95L326.87 721.96Q326.71 722.92 326.25 723.73Q325.80 724.54 325.08 725.12Q324.37 725.71 323.46 726.03Q322.54 726.35 321.46 726.35L321.46 726.35Q319.76 726.35 318.43 725.54Q317.10 724.73 316.34 723.22Q315.58 721.71 315.58 719.62L315.58 719.62Q315.58 717.53 316.34 716.02Q317.11 714.52 318.44 713.71Q319.77 712.90 321.46 712.90L321.46 712.90Q322.51 712.90 323.41 713.20Q324.31 713.49 325.04 714.07Q325.76 714.64 326.23 715.46Q326.71 716.28 326.87 717.34Z"/><path transform="rotate(8.10675514229089,334.73604109401515,721.8338690076914)" fill="#000000" stroke="#000000" d="M333.75 723.24L329.00 715.29L331.25 715.29L334.67 721.24L334.81 721.24L338.23 715.29L340.47 715.29L335.72 723.24L335.72 728.38L333.75 728.38L333.75 723.24Z"/><path transform="rotate(6.618830411633964,343.55056537569357,722.9728557161918)" fill="#000000" stroke="#000000" d="M343.55 729.64L343.55 729.64Q343.02 729.64 342.65 729.27Q342.27 728.89 342.27 728.36L342.27 728.36Q342.27 727.84 342.65 727.46Q343.02 727.09 343.55 727.09L343.55 727.09Q344.07 727.09 344.45 727.46Q344.83 727.84 344.83 728.36L344.83 728.36Q344.83 728.71 344.65 729.00Q344.47 729.29 344.19 729.47Q343.90 729.64 343.55 729.64Z"/><path transform="rotate(5.104180147797554,352.55070031340694,723.8968182083781)" fill="#000000" stroke="#000000" d="M350.69 730.44L348.72 730.44L348.72 717.35L356.83 717.35L356.83 719.05L350.69 719.05L350.69 723.04L356.25 723.04L356.25 724.73L350.69 724.73L350.69 730.44Z"/><path transform="rotate(3.1887734582316356,363.9618237209895,724.7240822066383)" fill="#000000" stroke="#000000" d="M368.23 731.27L360.32 731.27L360.32 718.18L362.30 718.18L362.30 729.57L368.23 729.57L368.23 731.27Z"/><path transform="rotate(1.1518820763560254,376.1197429334692,725.1848368626208)" fill="#000000" stroke="#000000" d="M382.02 725.18L382.02 725.18Q382.02 727.28 381.25 728.79Q380.48 730.29 379.15 731.10Q377.82 731.91 376.12 731.91L376.12 731.91Q374.42 731.91 373.09 731.10Q371.76 730.29 370.99 728.78Q370.22 727.28 370.22 725.18L370.22 725.18Q370.22 723.09 370.99 721.58Q371.76 720.08 373.09 719.27Q374.42 718.46 376.12 718.46L376.12 718.46Q377.82 718.46 379.15 719.27Q380.48 720.08 381.25 721.58Q382.02 723.09 382.02 725.18ZM380.06 725.18L380.06 725.18Q380.06 723.59 379.55 722.49Q379.03 721.39 378.14 720.83Q377.25 720.26 376.12 720.26L376.12 720.26Q374.99 720.26 374.10 720.83Q373.21 721.39 372.70 722.49Q372.19 723.59 372.19 725.18L372.19 725.18Q372.19 726.78 372.70 727.88Q373.21 728.98 374.10 729.54Q374.99 730.11 376.12 730.11L376.12 730.11Q377.25 730.11 378.14 729.54Q379.03 728.98 379.55 727.88Q380.06 726.78 380.06 725.18Z"/><path transform="rotate(-1.618673255865811,392.6677924725369,725.1174276541725)" fill="#000000" stroke="#000000" d="M389.86 731.66L387.87 731.66L384.24 718.57L386.31 718.57L388.86 728.71L388.99 728.71L391.64 718.57L393.70 718.57L396.35 728.72L396.47 728.72L399.02 718.57L401.10 718.57L397.46 731.66L395.47 731.66L392.72 721.86L392.62 721.86L389.86 731.66Z"/><path transform="rotate(-4.266163759454521,408.4602142456018,724.3056958308315)" fill="#000000" stroke="#000000" d="M414.15 722.02L414.15 722.02L412.16 722.02Q412.04 721.38 411.73 720.89Q411.42 720.41 410.96 720.07Q410.51 719.73 409.95 719.56Q409.39 719.38 408.76 719.38L408.76 719.38Q407.63 719.38 406.74 719.95Q405.85 720.52 405.33 721.62Q404.82 722.72 404.82 724.31L404.82 724.31Q404.82 725.90 405.33 727.00Q405.85 728.10 406.74 728.67Q407.64 729.23 408.76 729.23L408.76 729.23Q409.38 729.23 409.94 729.06Q410.50 728.89 410.95 728.56Q411.40 728.22 411.72 727.74Q412.04 727.26 412.16 726.63L412.16 726.63L414.15 726.64Q413.99 727.60 413.54 728.41Q413.08 729.22 412.37 729.81Q411.65 730.39 410.74 730.71Q409.82 731.03 408.74 731.03L408.74 731.03Q407.04 731.03 405.71 730.22Q404.39 729.41 403.62 727.90Q402.86 726.40 402.86 724.31L402.86 724.31Q402.86 722.21 403.62 720.70Q404.39 719.20 405.72 718.39Q407.05 717.58 408.74 717.58L408.74 717.58Q409.79 717.58 410.69 717.88Q411.60 718.18 412.32 718.75Q413.04 719.32 413.51 720.14Q413.99 720.96 414.15 722.02Z"/><path transform="rotate(-6.69152109511987,422.8807235215878,722.922532950369)" fill="#000000" stroke="#000000" d="M428.78 722.92L428.78 722.92Q428.78 725.02 428.01 726.52Q427.24 728.03 425.91 728.84Q424.58 729.65 422.88 729.65L422.88 729.65Q421.18 729.65 419.85 728.84Q418.52 728.03 417.75 726.52Q416.98 725.01 416.98 722.92L416.98 722.92Q416.98 720.83 417.75 719.32Q418.52 717.82 419.85 717.01Q421.18 716.20 422.88 716.20L422.88 716.20Q424.58 716.20 425.91 717.01Q427.24 717.82 428.01 719.32Q428.78 720.83 428.78 722.92ZM426.82 722.92L426.82 722.92Q426.82 721.32 426.31 720.23Q425.79 719.13 424.90 718.57Q424.01 718.00 422.88 718.00L422.88 718.00Q421.75 718.00 420.86 718.57Q419.98 719.13 419.46 720.23Q418.95 721.32 418.95 722.92L418.95 722.92Q418.95 724.52 419.46 725.62Q419.98 726.71 420.86 727.28Q421.75 727.84 422.88 727.84L422.88 727.84Q424.01 727.84 424.90 727.28Q425.79 726.71 426.31 725.62Q426.82 724.52 426.82 722.92Z"/><path transform="rotate(-9.138807793284846,437.35911779434673,720.9095838070006)" fill="#000000" stroke="#000000" d="M436.54 727.46L436.54 727.46L432.30 727.46L432.30 714.36L436.68 714.36Q438.60 714.36 439.98 715.15Q441.36 715.93 442.10 717.39Q442.84 718.85 442.84 720.89L442.84 720.89Q442.84 722.94 442.09 724.41Q441.35 725.88 439.94 726.67Q438.54 727.46 436.54 727.46ZM434.28 716.09L434.28 725.73L436.43 725.73Q437.93 725.73 438.92 725.16Q439.91 724.60 440.40 723.52Q440.89 722.44 440.89 720.89L440.89 720.89Q440.89 719.35 440.40 718.28Q439.92 717.20 438.95 716.65Q437.99 716.09 436.55 716.09L436.55 716.09L434.28 716.09Z"/><path transform="rotate(-11.29232716676343,450.0184061895102,718.6282672061724)" fill="#000000" stroke="#000000" d="M454.31 725.17L446.03 725.17L446.03 712.08L454.24 712.08L454.24 713.78L448.00 713.78L448.00 717.77L453.81 717.77L453.81 719.47L448.00 719.47L448.00 723.47L454.31 723.47L454.31 725.17Z"/><path transform="rotate(-12.768455045436252,458.6420981922623,716.7904634603453)" fill="#000000" stroke="#000000" d="M458.64 723.46L458.64 723.46Q458.11 723.46 457.74 723.08Q457.36 722.71 457.36 722.18L457.36 722.18Q457.36 721.65 457.74 721.28Q458.11 720.91 458.64 720.91L458.64 720.91Q459.16 720.91 459.54 721.28Q459.92 721.65 459.92 722.18L459.92 722.18Q459.92 722.53 459.74 722.82Q459.57 723.11 459.28 723.28Q458.99 723.46 458.64 723.46Z"/><path transform="rotate(-14.47841993120234,468.5687501854708,714.3846549067964)" fill="#000000" stroke="#000000" d="M474.26 712.10L474.26 712.10L472.27 712.10Q472.15 711.46 471.84 710.97Q471.53 710.49 471.07 710.15Q470.62 709.81 470.06 709.64Q469.50 709.46 468.87 709.46L468.87 709.46Q467.74 709.46 466.85 710.03Q465.96 710.60 465.44 711.70Q464.93 712.80 464.93 714.38L464.93 714.38Q464.93 715.98 465.44 717.08Q465.96 718.18 466.85 718.74Q467.75 719.31 468.87 719.31L468.87 719.31Q469.49 719.31 470.05 719.14Q470.60 718.97 471.06 718.64Q471.51 718.30 471.83 717.82Q472.15 717.34 472.27 716.71L472.27 716.71L474.26 716.72Q474.10 717.68 473.64 718.49Q473.19 719.30 472.47 719.89Q471.76 720.47 470.85 720.79Q469.93 721.11 468.85 721.11L468.85 721.11Q467.15 721.11 465.82 720.30Q464.49 719.49 463.73 717.98Q462.97 716.47 462.97 714.38L462.97 714.38Q462.97 712.29 463.73 710.78Q464.50 709.28 465.83 708.47Q467.16 707.66 468.85 707.66L468.85 707.66Q469.90 707.66 470.80 707.96Q471.70 708.25 472.43 708.83Q473.15 709.40 473.62 710.22Q474.09 711.04 474.26 712.10Z"/><path transform="rotate(-16.90377726686769,482.5155772707952,710.4667164712475)" fill="#000000" stroke="#000000" d="M488.41 710.47L488.41 710.47Q488.41 712.56 487.65 714.07Q486.88 715.57 485.55 716.38Q484.21 717.19 482.52 717.19L482.52 717.19Q480.82 717.19 479.49 716.38Q478.15 715.57 477.39 714.07Q476.62 712.56 476.62 710.47L476.62 710.47Q476.62 708.37 477.39 706.86Q478.15 705.36 479.49 704.55Q480.82 703.74 482.52 703.74L482.52 703.74Q484.21 703.74 485.55 704.55Q486.88 705.36 487.65 706.86Q488.41 708.37 488.41 710.47ZM486.46 710.47L486.46 710.47Q486.46 708.87 485.94 707.77Q485.43 706.68 484.54 706.11Q483.64 705.54 482.52 705.54L482.52 705.54Q481.39 705.54 480.50 706.11Q479.61 706.68 479.10 707.77Q478.58 708.87 478.58 710.47L478.58 710.47Q478.58 712.06 479.10 713.16Q479.61 714.26 480.50 714.82Q481.39 715.39 482.52 715.39L482.52 715.39Q483.64 715.39 484.54 714.82Q485.43 714.26 485.94 713.16Q486.46 712.06 486.46 710.47Z"/><path transform="rotate(-19.581164928572466,497.7036439681245,705.4606558580965)" fill="#000000" stroke="#000000" d="M491.06 712.01L491.06 698.92L493.46 698.92L497.63 709.09L497.78 709.09L501.95 698.92L504.34 698.92L504.34 712.01L502.47 712.01L502.47 702.53L502.34 702.53L498.48 711.99L496.92 711.99L493.06 702.53L492.94 702.53L492.94 712.01L491.06 712.01Z"/></svg><circle cx="191.5" cy="18.127450980392155" r="2.852941176470588" fill="#000000" /><circle cx="199.1078431372549" cy="18.127450980392155" r="2.852941176470588" fill="#000000" /><circle cx="206.7156862745098" cy="18.127450980392155" r="2.852941176470588" fill="#000000" /><circle cx="153.4607843137255" cy="25.735294117647058" r="2.852941176470588" fill="#000000" /><circle cx="176.2843137254902" cy="25.735294117647058" r="2.852941176470588" fill="#000000" /><circle cx="183.89215686274508" cy="25.735294117647058" r="2.852941176470588" fill="#000000" /><circle cx="191.5" cy="25.735294117647058" r="2.852941176470588" fill="#000000" /><circle cx="199.1078431372549" cy="25.735294117647058" r="2.852941176470588" fill="#000000" /><circle cx="214.3235294117647" cy="25.735294117647058" r="2.852941176470588" fill="#000000" /><circle cx="221.9313725490196" cy="25.735294117647058" r="2.852941176470588" fill="#000000" /><circle cx="237.14705882352942" cy="25.735294117647058" r="2.852941176470588" fill="#000000" /><circle cx="123.02941176470587" cy="33.34313725490196" r="2.852941176470588" fill="#000000" /><circle cx="138.2450980392157" cy="33.34313725490196" r="2.852941176470588" fill="#000000" /><circle cx="183.89215686274508" cy="33.34313725490196" r="2.852941176470588" fill="#000000" /><circle cx="214.3235294117647" cy="33.34313725490196" r="2.852941176470588" fill="#000000" /><circle cx="221.9313725490196" cy="33.34313725490196" r="2.852941176470588" fill="#000000" /><circle cx="259.9705882352941" cy="33.34313725490196" r="2.852941176470588" fill="#000000" /><circle cx="107.81372549019606" cy="40.95098039215686" r="2.852941176470588" fill="#000000" /><circle cx="115.42156862745097" cy="40.95098039215686" r="2.852941176470588" fill="#000000" /><circle cx="123.02941176470587" cy="40.95098039215686" r="2.852941176470588" fill="#000000" /><circle cx="130.63725490196077" cy="40.95098039215686" r="2.852941176470588" fill="#000000" /><circle cx="145.85294117647058" cy="40.95098039215686" r="2.852941176470588" fill="#000000" /><circle cx="153.4607843137255" cy="40.95098039215686" r="2.852941176470588" fill="#000000" /><circle cx="161.0686274509804" cy="40.95098039215686" r="2.852941176470588" fill="#000000" /><circle cx="183.89215686274508" cy="40.95098039215686" r="2.852941176470588" fill="#000000" /><circle cx="191.5" cy="40.95098039215686" r="2.852941176470588" fill="#000000" /><circle cx="206.7156862745098" cy="40.95098039215686" r="2.852941176470588" fill="#000000" /><circle cx="214.3235294117647" cy="40.95098039215686" r="2.852941176470588" fill="#000000" /><circle cx="221.9313725490196" cy="40.95098039215686" r="2.852941176470588" fill="#000000" /><circle cx="229.5392156862745" cy="40.95098039215686" r="2.852941176470588" fill="#000000" /><circle cx="237.14705882352942" cy="40.95098039215686" r="2.852941176470588" fill="#000000" /><circle cx="267.578431372549" cy="40.95098039215686" r="2.852941176470588" fill="#000000" /><circle cx="100.20588235294116" cy="48.55882352941176" r="2.852941176470588" fill="#000000" /><circle cx="107.81372549019606" cy="48.55882352941176" r="2.852941176470588" fill="#000000" /><circle cx="130.63725490196077" cy="48.55882352941176" r="2.852941176470588" fill="#000000" /><circle cx="138.2450980392157" cy="48.55882352941176" r="2.852941176470588" fill="#000000" /><circle cx="168.6764705882353" cy="48.55882352941176" r="2.852941176470588" fill="#000000" /><circle cx="191.5" cy="48.55882352941176" r="2.852941176470588" fill="#000000" /><circle cx="199.1078431372549" cy="48.55882352941176" r="2.852941176470588" fill="#000000" /><circle cx="229.5392156862745" cy="48.55882352941176" r="2.852941176470588" fill="#000000" /><circle cx="237.14705882352942" cy="48.55882352941176" r="2.852941176470588" fill="#000000" /><circle cx="259.9705882352941" cy="48.55882352941176" r="2.852941176470588" fill="#000000" /><circle cx="267.578431372549" cy="48.55882352941176" r="2.852941176470588" fill="#000000" /><circle cx="275.1862745098039" cy="48.55882352941176" r="2.852941176470588" fill="#000000" /><circle cx="290.4019607843137" cy="48.55882352941176" r="2.852941176470588" fill="#000000" /><circle cx="115.42156862745097" cy="56.166666666666664" r="2.852941176470588" fill="#000000" /><circle cx="123.02941176470587" cy="56.166666666666664" r="2.852941176470588" fill="#000000" /><circle cx="138.2450980392157" cy="56.166666666666664" r="2.852941176470588" fill="#000000" /><circle cx="145.85294117647058" cy="56.166666666666664" r="2.852941176470588" fill="#000000" /><circle cx="161.0686274509804" cy="56.166666666666664" r="2.852941176470588" fill="#000000" /><circle cx="206.7156862745098" cy="56.166666666666664" r="2.852941176470588" fill="#000000" /><circle cx="229.5392156862745" cy="56.166666666666664" r="2.852941176470588" fill="#000000" /><circle cx="244.7549019607843" cy="56.166666666666664" r="2.852941176470588" fill="#000000" /><circle cx="252.36274509803917" cy="56.166666666666664" r="2.852941176470588" fill="#000000" /><circle cx="259.9705882352941" cy="56.166666666666664" r="2.852941176470588" fill="#000000" /><circle cx="275.1862745098039" cy="56.166666666666664" r="2.852941176470588" fill="#000000" /><circle cx="290.4019607843137" cy="56.166666666666664" r="2.852941176470588" fill="#000000" /><circle cx="130.63725490196077" cy="69.77450980392156" r="2.852941176470588" fill="#000000" /><circle cx="138.2450980392157" cy="69.77450980392156" r="2.852941176470588" fill="#000000" /><circle cx="153.4607843137255" cy="69.77450980392156" r="2.852941176470588" fill="#000000" /><circle cx="168.6764705882353" cy="69.77450980392156" r="2.852941176470588" fill="#000000" /><circle cx="176.2843137254902" cy="69.77450980392156" r="2.852941176470588" fill="#000000" /><circle cx="206.7156862745098" cy="69.77450980392156" r="2.852941176470588" fill="#000000" /><circle cx="229.5392156862745" cy="69.77450980392156" r="2.852941176470588" fill="#000000" /><circle cx="237.14705882352942" cy="69.77450980392156" r="2.852941176470588" fill="#000000" /><circle cx="252.36274509803917" cy="69.77450980392156" r="2.852941176470588" fill="#000000" /><circle cx="161.0686274509804" cy="77.38235294117646" r="2.852941176470588" fill="#000000" /><circle cx="176.2843137254902" cy="77.38235294117646" r="2.852941176470588" fill="#000000" /><circle cx="183.89215686274508" cy="77.38235294117646" r="2.852941176470588" fill="#000000" /><circle cx="191.5" cy="77.38235294117646" r="2.852941176470588" fill="#000000" /><circle cx="199.1078431372549" cy="77.38235294117646" r="2.852941176470588" fill="#000000" /><circle cx="214.3235294117647" cy="77.38235294117646" r="2.852941176470588" fill="#000000" /><circle cx="237.14705882352942" cy="77.38235294117646" r="2.852941176470588" fill="#000000" /><circle cx="252.36274509803917" cy="77.38235294117646" r="2.852941176470588" fill="#000000" /><circle cx="56.166666666666664" cy="84.99019607843137" r="2.852941176470588" fill="#000000" /><circle cx="130.63725490196077" cy="84.99019607843137" r="2.852941176470588" fill="#000000" /><circle cx="138.2450980392157" cy="84.99019607843137" r="2.852941176470588" fill="#000000" /><circle cx="161.0686274509804" cy="84.99019607843137" r="2.852941176470588" fill="#000000" /><circle cx="191.5" cy="84.99019607843137" r="2.852941176470588" fill="#000000" /><circle cx="199.1078431372549" cy="84.99019607843137" r="2.852941176470588" fill="#000000" /><circle cx="229.5392156862745" cy="84.99019607843137" r="2.852941176470588" fill="#000000" /><circle cx="244.7549019607843" cy="84.99019607843137" r="2.852941176470588" fill="#000000" /><circle cx="252.36274509803917" cy="84.99019607843137" r="2.852941176470588" fill="#000000" /><circle cx="138.2450980392157" cy="92.59803921568626" r="2.852941176470588" fill="#000000" /><circle cx="161.0686274509804" cy="92.59803921568626" r="2.852941176470588" fill="#000000" /><circle cx="176.2843137254902" cy="92.59803921568626" r="2.852941176470588" fill="#000000" /><circle cx="191.5" cy="92.59803921568626" r="2.852941176470588" fill="#000000" /><circle cx="206.7156862745098" cy="92.59803921568626" r="2.852941176470588" fill="#000000" /><circle cx="214.3235294117647" cy="92.59803921568626" r="2.852941176470588" fill="#000000" /><circle cx="221.9313725490196" cy="92.59803921568626" r="2.852941176470588" fill="#000000" /><circle cx="229.5392156862745" cy="92.59803921568626" r="2.852941176470588" fill="#000000" /><circle cx="244.7549019607843" cy="92.59803921568626" r="2.852941176470588" fill="#000000" /><circle cx="252.36274509803917" cy="92.59803921568626" r="2.852941176470588" fill="#000000" /><circle cx="326.8333333333333" cy="92.59803921568626" r="2.852941176470588" fill="#000000" /><circle cx="334.44117647058823" cy="92.59803921568626" r="2.852941176470588" fill="#000000" /><circle cx="48.55882352941176" cy="100.20588235294116" r="2.852941176470588" fill="#000000" /><circle cx="56.166666666666664" cy="100.20588235294116" r="2.852941176470588" fill="#000000" /><circle cx="130.63725490196077" cy="100.20588235294116" r="2.852941176470588" fill="#000000" /><circle cx="183.89215686274508" cy="100.20588235294116" r="2.852941176470588" fill="#000000" /><circle cx="229.5392156862745" cy="100.20588235294116" r="2.852941176470588" fill="#000000" /><circle cx="252.36274509803917" cy="100.20588235294116" r="2.852941176470588" fill="#000000" /><circle cx="334.44117647058823" cy="100.20588235294116" r="2.852941176470588" fill="#000000" /><circle cx="40.95098039215686" cy="107.81372549019606" r="2.852941176470588" fill="#000000" /><circle cx="48.55882352941176" cy="107.81372549019606" r="2.852941176470588" fill="#000000" /><circle cx="138.2450980392157" cy="107.81372549019606" r="2.852941176470588" fill="#000000" /><circle cx="145.85294117647058" cy="107.81372549019606" r="2.852941176470588" fill="#000000" /><circle cx="183.89215686274508" cy="107.81372549019606" r="2.852941176470588" fill="#000000" /><circle cx="191.5" cy="107.81372549019606" r="2.852941176470588" fill="#000000" /><circle cx="206.7156862745098" cy="107.81372549019606" r="2.852941176470588" fill="#000000" /><circle cx="237.14705882352942" cy="107.81372549019606" r="2.852941176470588" fill="#000000" /><circle cx="252.36274509803917" cy="107.81372549019606" r="2.852941176470588" fill="#000000" /><circle cx="326.8333333333333" cy="107.81372549019606" r="2.852941176470588" fill="#000000" /><circle cx="342.04901960784315" cy="107.81372549019606" r="2.852941176470588" fill="#000000" /><circle cx="56.166666666666664" cy="115.42156862745097" r="2.852941176470588" fill="#000000" /><circle cx="130.63725490196077" cy="115.42156862745097" r="2.852941176470588" fill="#000000" /><circle cx="145.85294117647058" cy="115.42156862745097" r="2.852941176470588" fill="#000000" /><circle cx="161.0686274509804" cy="115.42156862745097" r="2.852941176470588" fill="#000000" /><circle cx="176.2843137254902" cy="115.42156862745097" r="2.852941176470588" fill="#000000" /><circle cx="191.5" cy="115.42156862745097" r="2.852941176470588" fill="#000000" /><circle cx="206.7156862745098" cy="115.42156862745097" r="2.852941176470588" fill="#000000" /><circle cx="221.9313725490196" cy="115.42156862745097" r="2.852941176470588" fill="#000000" /><circle cx="237.14705882352942" cy="115.42156862745097" r="2.852941176470588" fill="#000000" /><circle cx="252.36274509803917" cy="115.42156862745097" r="2.852941176470588" fill="#000000" /><circle cx="48.55882352941176" cy="123.02941176470587" r="2.852941176470588" fill="#000000" /><circle cx="56.166666666666664" cy="123.02941176470587" r="2.852941176470588" fill="#000000" /><circle cx="130.63725490196077" cy="123.02941176470587" r="2.852941176470588" fill="#000000" /><circle cx="138.2450980392157" cy="123.02941176470587" r="2.852941176470588" fill="#000000" /><circle cx="176.2843137254902" cy="123.02941176470587" r="2.852941176470588" fill="#000000" /><circle cx="191.5" cy="123.02941176470587" r="2.852941176470588" fill="#000000" /><circle cx="199.1078431372549" cy="123.02941176470587" r="2.852941176470588" fill="#000000" /><circle cx="214.3235294117647" cy="123.02941176470587" r="2.852941176470588" fill="#000000" /><circle cx="221.9313725490196" cy="123.02941176470587" r="2.852941176470588" fill="#000000" /><circle cx="237.14705882352942" cy="123.02941176470587" r="2.852941176470588" fill="#000000" /><circle cx="244.7549019607843" cy="123.02941176470587" r="2.852941176470588" fill="#000000" /><circle cx="252.36274509803917" cy="123.02941176470587" r="2.852941176470588" fill="#000000" /><circle cx="349.656862745098" cy="123.02941176470587" r="2.852941176470588" fill="#000000" /><circle cx="40.95098039215686" cy="130.63725490196077" r="2.852941176470588" fill="#000000" /><circle cx="56.166666666666664" cy="130.63725490196077" r="2.852941176470588" fill="#000000" /><circle cx="107.81372549019606" cy="130.63725490196077" r="2.852941176470588" fill="#000000" /><circle cx="115.42156862745097" cy="130.63725490196077" r="2.852941176470588" fill="#000000" /><circle cx="145.85294117647058" cy="130.63725490196077" r="2.852941176470588" fill="#000000" /><circle cx="161.0686274509804" cy="130.63725490196077" r="2.852941176470588" fill="#000000" /><circle cx="183.89215686274508" cy="130.63725490196077" r="2.852941176470588" fill="#000000" /><circle cx="199.1078431372549" cy="130.63725490196077" r="2.852941176470588" fill="#000000" /><circle cx="206.7156862745098" cy="130.63725490196077" r="2.852941176470588" fill="#000000" /><circle cx="214.3235294117647" cy="130.63725490196077" r="2.852941176470588" fill="#000000" /><circle cx="244.7549019607843" cy="130.63725490196077" r="2.852941176470588" fill="#000000" /><circle cx="267.578431372549" cy="130.63725490196077" r="2.852941176470588" fill="#000000" /><circle cx="282.79411764705884" cy="130.63725490196077" r="2.852941176470588" fill="#000000" /><circle cx="298.0098039215686" cy="130.63725490196077" r="2.852941176470588" fill="#000000" /><circle cx="313.2254901960784" cy="130.63725490196077" r="2.852941176470588" fill="#000000" /><circle cx="326.8333333333333" cy="130.63725490196077" r="2.852941176470588" fill="#000000" /><circle cx="334.44117647058823" cy="130.63725490196077" r="2.852941176470588" fill="#000000" /><circle cx="342.04901960784315" cy="130.63725490196077" r="2.852941176470588" fill="#000000" /><circle cx="33.34313725490196" cy="138.2450980392157" r="2.852941176470588" fill="#000000" /><circle cx="40.95098039215686" cy="138.2450980392157" r="2.852941176470588" fill="#000000" /><circle cx="48.55882352941176" cy="138.2450980392157" r="2.852941176470588" fill="#000000" /><circle cx="69.77450980392156" cy="138.2450980392157" r="2.852941176470588" fill="#000000" /><circle cx="84.99019607843137" cy="138.2450980392157" r="2.852941176470588" fill="#000000" /><circle cx="92.59803921568626" cy="138.2450980392157" r="2.852941176470588" fill="#000000" /><circle cx="100.20588235294116" cy="138.2450980392157" r="2.852941176470588" fill="#000000" /><circle cx="123.02941176470587" cy="138.2450980392157" r="2.852941176470588" fill="#000000" /><circle cx="176.2843137254902" cy="138.2450980392157" r="2.852941176470588" fill="#000000" /><circle cx="191.5" cy="138.2450980392157" r="2.852941176470588" fill="#000000" /><circle cx="199.1078431372549" cy="138.2450980392157" r="2.852941176470588" fill="#000000" /><circle cx="206.7156862745098" cy="138.2450980392157" r="2.852941176470588" fill="#000000" /><circle cx="214.3235294117647" cy="138.2450980392157" r="2.852941176470588" fill="#000000" /><circle cx="229.5392156862745" cy="138.2450980392157" r="2.852941176470588" fill="#000000" /><circle cx="244.7549019607843" cy="138.2450980392157" r="2.852941176470588" fill="#000000" /><circle cx="252.36274509803917" cy="138.2450980392157" r="2.852941176470588" fill="#000000" /><circle cx="259.9705882352941" cy="138.2450980392157" r="2.852941176470588" fill="#000000" /><circle cx="275.1862745098039" cy="138.2450980392157" r="2.852941176470588" fill="#000000" /><circle cx="282.79411764705884" cy="138.2450980392157" r="2.852941176470588" fill="#000000" /><circle cx="298.0098039215686" cy="138.2450980392157" r="2.852941176470588" fill="#000000" /><circle cx="326.8333333333333" cy="138.2450980392157" r="2.852941176470588" fill="#000000" /><circle cx="334.44117647058823" cy="138.2450980392157" r="2.852941176470588" fill="#000000" /><circle cx="342.04901960784315" cy="138.2450980392157" r="2.852941176470588" fill="#000000" /><circle cx="357.2647058823529" cy="138.2450980392157" r="2.852941176470588" fill="#000000" /><circle cx="33.34313725490196" cy="145.85294117647058" r="2.852941176470588" fill="#000000" /><circle cx="48.55882352941176" cy="145.85294117647058" r="2.852941176470588" fill="#000000" /><circle cx="56.166666666666664" cy="145.85294117647058" r="2.852941176470588" fill="#000000" /><circle cx="69.77450980392156" cy="145.85294117647058" r="2.852941176470588" fill="#000000" /><circle cx="77.38235294117646" cy="145.85294117647058" r="2.852941176470588" fill="#000000" /><circle cx="92.59803921568626" cy="145.85294117647058" r="2.852941176470588" fill="#000000" /><circle cx="107.81372549019606" cy="145.85294117647058" r="2.852941176470588" fill="#000000" /><circle cx="115.42156862745097" cy="145.85294117647058" r="2.852941176470588" fill="#000000" /><circle cx="123.02941176470587" cy="145.85294117647058" r="2.852941176470588" fill="#000000" /><circle cx="130.63725490196077" cy="145.85294117647058" r="2.852941176470588" fill="#000000" /><circle cx="161.0686274509804" cy="145.85294117647058" r="2.852941176470588" fill="#000000" /><circle cx="168.6764705882353" cy="145.85294117647058" r="2.852941176470588" fill="#000000" /><circle cx="176.2843137254902" cy="145.85294117647058" r="2.852941176470588" fill="#000000" /><circle cx="191.5" cy="145.85294117647058" r="2.852941176470588" fill="#000000" /><circle cx="214.3235294117647" cy="145.85294117647058" r="2.852941176470588" fill="#000000" /><circle cx="221.9313725490196" cy="145.85294117647058" r="2.852941176470588" fill="#000000" /><circle cx="237.14705882352942" cy="145.85294117647058" r="2.852941176470588" fill="#000000" /><circle cx="259.9705882352941" cy="145.85294117647058" r="2.852941176470588" fill="#000000" /><circle cx="275.1862745098039" cy="145.85294117647058" r="2.852941176470588" fill="#000000" /><circle cx="290.4019607843137" cy="145.85294117647058" r="2.852941176470588" fill="#000000" /><circle cx="305.61764705882354" cy="145.85294117647058" r="2.852941176470588" fill="#000000" /><circle cx="326.8333333333333" cy="145.85294117647058" r="2.852941176470588" fill="#000000" /><circle cx="334.44117647058823" cy="145.85294117647058" r="2.852941176470588" fill="#000000" /><circle cx="349.656862745098" cy="145.85294117647058" r="2.852941176470588" fill="#000000" /><circle cx="33.34313725490196" cy="153.4607843137255" r="2.852941176470588" fill="#000000" /><circle cx="40.95098039215686" cy="153.4607843137255" r="2.852941176470588" fill="#000000" /><circle cx="48.55882352941176" cy="153.4607843137255" r="2.852941176470588" fill="#000000" /><circle cx="84.99019607843137" cy="153.4607843137255" r="2.852941176470588" fill="#000000" /><circle cx="100.20588235294116" cy="153.4607843137255" r="2.852941176470588" fill="#000000" /><circle cx="145.85294117647058" cy="153.4607843137255" r="2.852941176470588" fill="#000000" /><circle cx="168.6764705882353" cy="153.4607843137255" r="2.852941176470588" fill="#000000" /><circle cx="176.2843137254902" cy="153.4607843137255" r="2.852941176470588" fill="#000000" /><circle cx="183.89215686274508" cy="153.4607843137255" r="2.852941176470588" fill="#000000" /><circle cx="206.7156862745098" cy="153.4607843137255" r="2.852941176470588" fill="#000000" /><circle cx="229.5392156862745" cy="153.4607843137255" r="2.852941176470588" fill="#000000" /><circle cx="244.7549019607843" cy="153.4607843137255" r="2.852941176470588" fill="#000000" /><circle cx="259.9705882352941" cy="153.4607843137255" r="2.852941176470588" fill="#000000" /><circle cx="267.578431372549" cy="153.4607843137255" r="2.852941176470588" fill="#000000" /><circle cx="275.1862745098039" cy="153.4607843137255" r="2.852941176470588" fill="#000000" /><circle cx="290.4019607843137" cy="153.4607843137255" r="2.852941176470588" fill="#000000" /><circle cx="298.0098039215686" cy="153.4607843137255" r="2.852941176470588" fill="#000000" /><circle cx="313.2254901960784" cy="153.4607843137255" r="2.852941176470588" fill="#000000" /><circle cx="25.735294117647058" cy="161.0686274509804" r="2.852941176470588" fill="#000000" /><circle cx="40.95098039215686" cy="161.0686274509804" r="2.852941176470588" fill="#000000" /><circle cx="56.166666666666664" cy="161.0686274509804" r="2.852941176470588" fill="#000000" /><circle cx="69.77450980392156" cy="161.0686274509804" r="2.852941176470588" fill="#000000" /><circle cx="84.99019607843137" cy="161.0686274509804" r="2.852941176470588" fill="#000000" /><circle cx="100.20588235294116" cy="161.0686274509804" r="2.852941176470588" fill="#000000" /><circle cx="107.81372549019606" cy="161.0686274509804" r="2.852941176470588" fill="#000000" /><circle cx="115.42156862745097" cy="161.0686274509804" r="2.852941176470588" fill="#000000" /><circle cx="123.02941176470587" cy="161.0686274509804" r="2.852941176470588" fill="#000000" /><circle cx="138.2450980392157" cy="161.0686274509804" r="2.852941176470588" fill="#000000" /><circle cx="145.85294117647058" cy="161.0686274509804" r="2.852941176470588" fill="#000000" /><circle cx="153.4607843137255" cy="161.0686274509804" r="2.852941176470588" fill="#000000" /><circle cx="161.0686274509804" cy="161.0686274509804" r="2.852941176470588" fill="#000000" /><circle cx="168.6764705882353" cy="161.0686274509804" r="2.852941176470588" fill="#000000" /><circle cx="176.2843137254902" cy="161.0686274509804" r="2.852941176470588" fill="#000000" /><circle cx="183.89215686274508" cy="161.0686274509804" r="2.852941176470588" fill="#000000" /><circle cx="191.5" cy="161.0686274509804" r="2.852941176470588" fill="#000000" /><circle cx="199.1078431372549" cy="161.0686274509804" r="2.852941176470588" fill="#000000" /><circle cx="229.5392156862745" cy="161.0686274509804" r="2.852941176470588" fill="#000000" /><circle cx="252.36274509803917" cy="161.0686274509804" r="2.852941176470588" fill="#000000" /><circle cx="267.578431372549" cy="161.0686274509804" r="2.852941176470588" fill="#000000" /><circle cx="275.1862745098039" cy="161.0686274509804" r="2.852941176470588" fill="#000000" /><circle cx="290.4019607843137" cy="161.0686274509804" r="2.852941176470588" fill="#000000" /><circle cx="313.2254901960784" cy="161.0686274509804" r="2.852941176470588" fill="#000000" /><circle cx="349.656862745098" cy="161.0686274509804" r="2.852941176470588" fill="#000000" /><circle cx="25.735294117647058" cy="168.6764705882353" r="2.852941176470588" fill="#000000" /><circle cx="33.34313725490196" cy="168.6764705882353" r="2.852941176470588" fill="#000000" /><circle cx="40.95098039215686" cy="168.6764705882353" r="2.852941176470588" fill="#000000" /><circle cx="48.55882352941176" cy="168.6764705882353" r="2.852941176470588" fill="#000000" /><circle cx="69.77450980392156" cy="168.6764705882353" r="2.852941176470588" fill="#000000" /><circle cx="92.59803921568626" cy="168.6764705882353" r="2.852941176470588" fill="#000000" /><circle cx="123.02941176470587" cy="168.6764705882353" r="2.852941176470588" fill="#000000" /><circle cx="138.2450980392157" cy="168.6764705882353" r="2.852941176470588" fill="#000000" /><circle cx="153.4607843137255" cy="168.6764705882353" r="2.852941176470588" fill="#000000" /><circle cx="161.0686274509804" cy="168.6764705882353" r="2.852941176470588" fill="#000000" /><circle cx="176.2843137254902" cy="168.6764705882353" r="2.852941176470588" fill="#000000" /><circle cx="183.89215686274508" cy="168.6764705882353" r="2.852941176470588" fill="#000000" /><circle cx="191.5" cy="168.6764705882353" r="2.852941176470588" fill="#000000" /><circle cx="199.1078431372549" cy="168.6764705882353" r="2.852941176470588" fill="#000000" /><circle cx="214.3235294117647" cy="168.6764705882353" r="2.852941176470588" fill="#000000" /><circle cx="229.5392156862745" cy="168.6764705882353" r="2.852941176470588" fill="#000000" /><circle cx="244.7549019607843" cy="168.6764705882353" r="2.852941176470588" fill="#000000" /><circle cx="267.578431372549" cy="168.6764705882353" r="2.852941176470588" fill="#000000" /><circle cx="275.1862745098039" cy="168.6764705882353" r="2.852941176470588" fill="#000000" /><circle cx="313.2254901960784" cy="168.6764705882353" r="2.852941176470588" fill="#000000" /><circle cx="326.8333333333333" cy="168.6764705882353" r="2.852941176470588" fill="#000000" /><circle cx="349.656862745098" cy="168.6764705882353" r="2.852941176470588" fill="#000000" /><circle cx="357.2647058823529" cy="168.6764705882353" r="2.852941176470588" fill="#000000" /><circle cx="18.127450980392155" cy="176.2843137254902" r="2.852941176470588" fill="#000000" /><circle cx="25.735294117647058" cy="176.2843137254902" r="2.852941176470588" fill="#000000" /><circle cx="33.34313725490196" cy="176.2843137254902" r="2.852941176470588" fill="#000000" /><circle cx="40.95098039215686" cy="176.2843137254902" r="2.852941176470588" fill="#000000" /><circle cx="56.166666666666664" cy="176.2843137254902" r="2.852941176470588" fill="#000000" /><circle cx="69.77450980392156" cy="176.2843137254902" r="2.852941176470588" fill="#000000" /><circle cx="115.42156862745097" cy="176.2843137254902" r="2.852941176470588" fill="#000000" /><circle cx="130.63725490196077" cy="176.2843137254902" r="2.852941176470588" fill="#000000" /><circle cx="176.2843137254902" cy="176.2843137254902" r="2.852941176470588" fill="#000000" /><circle cx="191.5" cy="176.2843137254902" r="2.852941176470588" fill="#000000" /><circle cx="214.3235294117647" cy="176.2843137254902" r="2.852941176470588" fill="#000000" /><circle cx="237.14705882352942" cy="176.2843137254902" r="2.852941176470588" fill="#000000" /><circle cx="259.9705882352941" cy="176.2843137254902" r="2.852941176470588" fill="#000000" /><circle cx="267.578431372549" cy="176.2843137254902" r="2.852941176470588" fill="#000000" /><circle cx="275.1862745098039" cy="176.2843137254902" r="2.852941176470588" fill="#000000" /><circle cx="290.4019607843137" cy="176.2843137254902" r="2.852941176470588" fill="#000000" /><circle cx="305.61764705882354" cy="176.2843137254902" r="2.852941176470588" fill="#000000" /><circle cx="334.44117647058823" cy="176.2843137254902" r="2.852941176470588" fill="#000000" /><circle cx="342.04901960784315" cy="176.2843137254902" r="2.852941176470588" fill="#000000" /><circle cx="349.656862745098" cy="176.2843137254902" r="2.852941176470588" fill="#000000" /><circle cx="33.34313725490196" cy="183.89215686274508" r="2.852941176470588" fill="#000000" /><circle cx="48.55882352941176" cy="183.89215686274508" r="2.852941176470588" fill="#000000" /><circle cx="69.77450980392156" cy="183.89215686274508" r="2.852941176470588" fill="#000000" /><circle cx="84.99019607843137" cy="183.89215686274508" r="2.852941176470588" fill="#000000" /><circle cx="100.20588235294116" cy="183.89215686274508" r="2.852941176470588" fill="#000000" /><circle cx="107.81372549019606" cy="183.89215686274508" r="2.852941176470588" fill="#000000" /><circle cx="123.02941176470587" cy="183.89215686274508" r="2.852941176470588" fill="#000000" /><circle cx="138.2450980392157" cy="183.89215686274508" r="2.852941176470588" fill="#000000" /><circle cx="153.4607843137255" cy="183.89215686274508" r="2.852941176470588" fill="#000000" /><circle cx="168.6764705882353" cy="183.89215686274508" r="2.852941176470588" fill="#000000" /><circle cx="183.89215686274508" cy="183.89215686274508" r="2.852941176470588" fill="#000000" /><circle cx="191.5" cy="183.89215686274508" r="2.852941176470588" fill="#000000" /><circle cx="206.7156862745098" cy="183.89215686274508" r="2.852941176470588" fill="#000000" /><circle cx="244.7549019607843" cy="183.89215686274508" r="2.852941176470588" fill="#000000" /><circle cx="259.9705882352941" cy="183.89215686274508" r="2.852941176470588" fill="#000000" /><circle cx="275.1862745098039" cy="183.89215686274508" r="2.852941176470588" fill="#000000" /><circle cx="282.79411764705884" cy="183.89215686274508" r="2.852941176470588" fill="#000000" /><circle cx="290.4019607843137" cy="183.89215686274508" r="2.852941176470588" fill="#000000" /><circle cx="298.0098039215686" cy="183.89215686274508" r="2.852941176470588" fill="#000000" /><circle cx="313.2254901960784" cy="183.89215686274508" r="2.852941176470588" fill="#000000" /><circle cx="326.8333333333333" cy="183.89215686274508" r="2.852941176470588" fill="#000000" /><circle cx="334.44117647058823" cy="183.89215686274508" r="2.852941176470588" fill="#000000" /><circle cx="342.04901960784315" cy="183.89215686274508" r="2.852941176470588" fill="#000000" /><circle cx="349.656862745098" cy="183.89215686274508" r="2.852941176470588" fill="#000000" /><circle cx="357.2647058823529" cy="183.89215686274508" r="2.852941176470588" fill="#000000" /><circle cx="25.735294117647058" cy="191.5" r="2.852941176470588" fill="#000000" /><circle cx="40.95098039215686" cy="191.5" r="2.852941176470588" fill="#000000" /><circle cx="48.55882352941176" cy="191.5" r="2.852941176470588" fill="#000000" /><circle cx="56.166666666666664" cy="191.5" r="2.852941176470588" fill="#000000" /><circle cx="69.77450980392156" cy="191.5" r="2.852941176470588" fill="#000000" /><circle cx="77.38235294117646" cy="191.5" r="2.852941176470588" fill="#000000" /><circle cx="84.99019607843137" cy="191.5" r="2.852941176470588" fill="#000000" /><circle cx="92.59803921568626" cy="191.5" r="2.852941176470588" fill="#000000" /><circle cx="100.20588235294116" cy="191.5" r="2.852941176470588" fill="#000000" /><circle cx="115.42156862745097" cy="191.5" r="2.852941176470588" fill="#000000" /><circle cx="130.63725490196077" cy="191.5" r="2.852941176470588" fill="#000000" /><circle cx="176.2843137254902" cy="191.5" r="2.852941176470588" fill="#000000" /><circle cx="221.9313725490196" cy="191.5" r="2.852941176470588" fill="#000000" /><circle cx="244.7549019607843" cy="191.5" r="2.852941176470588" fill="#000000" /><circle cx="259.9705882352941" cy="191.5" r="2.852941176470588" fill="#000000" /><circle cx="275.1862745098039" cy="191.5" r="2.852941176470588" fill="#000000" /><circle cx="282.79411764705884" cy="191.5" r="2.852941176470588" fill="#000000" /><circle cx="290.4019607843137" cy="191.5" r="2.852941176470588" fill="#000000" /><circle cx="298.0098039215686" cy="191.5" r="2.852941176470588" fill="#000000" /><circle cx="326.8333333333333" cy="191.5" r="2.852941176470588" fill="#000000" /><circle cx="334.44117647058823" cy="191.5" r="2.852941176470588" fill="#000000" /><circle cx="357.2647058823529" cy="191.5" r="2.852941176470588" fill="#000000" /><circle cx="18.127450980392155" cy="199.1078431372549" r="2.852941176470588" fill="#000000" /><circle cx="25.735294117647058" cy="199.1078431372549" r="2.852941176470588" fill="#000000" /><circle cx="40.95098039215686" cy="199.1078431372549" r="2.852941176470588" fill="#000000" /><circle cx="48.55882352941176" cy="199.1078431372549" r="2.852941176470588" fill="#000000" /><circle cx="56.166666666666664" cy="199.1078431372549" r="2.852941176470588" fill="#000000" /><circle cx="69.77450980392156" cy="199.1078431372549" r="2.852941176470588" fill="#000000" /><circle cx="77.38235294117646" cy="199.1078431372549" r="2.852941176470588" fill="#000000" /><circle cx="84.99019607843137" cy="199.1078431372549" r="2.852941176470588" fill="#000000" /><circle cx="92.59803921568626" cy="199.1078431372549" r="2.852941176470588" fill="#000000" /><circle cx="138.2450980392157" cy="199.1078431372549" r="2.852941176470588" fill="#000000" /><circle cx="145.85294117647058" cy="199.1078431372549" r="2.852941176470588" fill="#000000" /><circle cx="153.4607843137255" cy="199.1078431372549" r="2.852941176470588" fill="#000000" /><circle cx="244.7549019607843" cy="199.1078431372549" r="2.852941176470588" fill="#000000" /><circle cx="252.36274509803917" cy="199.1078431372549" r="2.852941176470588" fill="#000000" /><circle cx="259.9705882352941" cy="199.1078431372549" r="2.852941176470588" fill="#000000" /><circle cx="267.578431372549" cy="199.1078431372549" r="2.852941176470588" fill="#000000" /><circle cx="326.8333333333333" cy="199.1078431372549" r="2.852941176470588" fill="#000000" /><circle cx="334.44117647058823" cy="199.1078431372549" r="2.852941176470588" fill="#000000" /><circle cx="342.04901960784315" cy="199.1078431372549" r="2.852941176470588" fill="#000000" /><circle cx="40.95098039215686" cy="206.7156862745098" r="2.852941176470588" fill="#000000" /><circle cx="48.55882352941176" cy="206.7156862745098" r="2.852941176470588" fill="#000000" /><circle cx="77.38235294117646" cy="206.7156862745098" r="2.852941176470588" fill="#000000" /><circle cx="107.81372549019606" cy="206.7156862745098" r="2.852941176470588" fill="#000000" /><circle cx="115.42156862745097" cy="206.7156862745098" r="2.852941176470588" fill="#000000" /><circle cx="123.02941176470587" cy="206.7156862745098" r="2.852941176470588" fill="#000000" /><circle cx="138.2450980392157" cy="206.7156862745098" r="2.852941176470588" fill="#000000" /><circle cx="153.4607843137255" cy="206.7156862745098" r="2.852941176470588" fill="#000000" /><circle cx="161.0686274509804" cy="206.7156862745098" r="2.852941176470588" fill="#000000" /><circle cx="168.6764705882353" cy="206.7156862745098" r="2.852941176470588" fill="#000000" /><circle cx="199.1078431372549" cy="206.7156862745098" r="2.852941176470588" fill="#000000" /><circle cx="206.7156862745098" cy="206.7156862745098" r="2.852941176470588" fill="#000000" /><circle cx="214.3235294117647" cy="206.7156862745098" r="2.852941176470588" fill="#000000" /><circle cx="221.9313725490196" cy="206.7156862745098" r="2.852941176470588" fill="#000000" /><circle cx="229.5392156862745" cy="206.7156862745098" r="2.852941176470588" fill="#000000" /><circle cx="244.7549019607843" cy="206.7156862745098" r="2.852941176470588" fill="#000000" /><circle cx="259.9705882352941" cy="206.7156862745098" r="2.852941176470588" fill="#000000" /><circle cx="267.578431372549" cy="206.7156862745098" r="2.852941176470588" fill="#000000" /><circle cx="282.79411764705884" cy="206.7156862745098" r="2.852941176470588" fill="#000000" /><circle cx="290.4019607843137" cy="206.7156862745098" r="2.852941176470588" fill="#000000" /><circle cx="298.0098039215686" cy="206.7156862745098" r="2.852941176470588" fill="#000000" /><circle cx="313.2254901960784" cy="206.7156862745098" r="2.852941176470588" fill="#000000" /><circle cx="334.44117647058823" cy="206.7156862745098" r="2.852941176470588" fill="#000000" /><circle cx="349.656862745098" cy="206.7156862745098" r="2.852941176470588" fill="#000000" /><circle cx="48.55882352941176" cy="214.3235294117647" r="2.852941176470588" fill="#000000" /><circle cx="56.166666666666664" cy="214.3235294117647" r="2.852941176470588" fill="#000000" /><circle cx="84.99019607843137" cy="214.3235294117647" r="2.852941176470588" fill="#000000" /><circle cx="107.81372549019606" cy="214.3235294117647" r="2.852941176470588" fill="#000000" /><circle cx="161.0686274509804" cy="214.3235294117647" r="2.852941176470588" fill="#000000" /><circle cx="176.2843137254902" cy="214.3235294117647" r="2.852941176470588" fill="#000000" /><circle cx="183.89215686274508" cy="214.3235294117647" r="2.852941176470588" fill="#000000" /><circle cx="199.1078431372549" cy="214.3235294117647" r="2.852941176470588" fill="#000000" /><circle cx="214.3235294117647" cy="214.3235294117647" r="2.852941176470588" fill="#000000" /><circle cx="237.14705882352942" cy="214.3235294117647" r="2.852941176470588" fill="#000000" /><circle cx="244.7549019607843" cy="214.3235294117647" r="2.852941176470588" fill="#000000" /><circle cx="252.36274509803917" cy="214.3235294117647" r="2.852941176470588" fill="#000000" /><circle cx="259.9705882352941" cy="214.3235294117647" r="2.852941176470588" fill="#000000" /><circle cx="275.1862745098039" cy="214.3235294117647" r="2.852941176470588" fill="#000000" /><circle cx="282.79411764705884" cy="214.3235294117647" r="2.852941176470588" fill="#000000" /><circle cx="290.4019607843137" cy="214.3235294117647" r="2.852941176470588" fill="#000000" /><circle cx="298.0098039215686" cy="214.3235294117647" r="2.852941176470588" fill="#000000" /><circle cx="313.2254901960784" cy="214.3235294117647" r="2.852941176470588" fill="#000000" /><circle cx="326.8333333333333" cy="214.3235294117647" r="2.852941176470588" fill="#000000" /><circle cx="342.04901960784315" cy="214.3235294117647" r="2.852941176470588" fill="#000000" /><circle cx="349.656862745098" cy="214.3235294117647" r="2.852941176470588" fill="#000000" /><circle cx="357.2647058823529" cy="214.3235294117647" r="2.852941176470588" fill="#000000" /><circle cx="25.735294117647058" cy="221.9313725490196" r="2.852941176470588" fill="#000000" /><circle cx="33.34313725490196" cy="221.9313725490196" r="2.852941176470588" fill="#000000" /><circle cx="40.95098039215686" cy="221.9313725490196" r="2.852941176470588" fill="#000000" /><circle cx="48.55882352941176" cy="221.9313725490196" r="2.852941176470588" fill="#000000" /><circle cx="56.166666666666664" cy="221.9313725490196" r="2.852941176470588" fill="#000000" /><circle cx="92.59803921568626" cy="221.9313725490196" r="2.852941176470588" fill="#000000" /><circle cx="115.42156862745097" cy="221.9313725490196" r="2.852941176470588" fill="#000000" /><circle cx="123.02941176470587" cy="221.9313725490196" r="2.852941176470588" fill="#000000" /><circle cx="130.63725490196077" cy="221.9313725490196" r="2.852941176470588" fill="#000000" /><circle cx="145.85294117647058" cy="221.9313725490196" r="2.852941176470588" fill="#000000" /><circle cx="161.0686274509804" cy="221.9313725490196" r="2.852941176470588" fill="#000000" /><circle cx="191.5" cy="221.9313725490196" r="2.852941176470588" fill="#000000" /><circle cx="199.1078431372549" cy="221.9313725490196" r="2.852941176470588" fill="#000000" /><circle cx="221.9313725490196" cy="221.9313725490196" r="2.852941176470588" fill="#000000" /><circle cx="252.36274509803917" cy="221.9313725490196" r="2.852941176470588" fill="#000000" /><circle cx="259.9705882352941" cy="221.9313725490196" r="2.852941176470588" fill="#000000" /><circle cx="282.79411764705884" cy="221.9313725490196" r="2.852941176470588" fill="#000000" /><circle cx="290.4019607843137" cy="221.9313725490196" r="2.852941176470588" fill="#000000" /><circle cx="313.2254901960784" cy="221.9313725490196" r="2.852941176470588" fill="#000000" /><circle cx="326.8333333333333" cy="221.9313725490196" r="2.852941176470588" fill="#000000" /><circle cx="342.04901960784315" cy="221.9313725490196" r="2.852941176470588" fill="#000000" /><circle cx="33.34313725490196" cy="229.5392156862745" r="2.852941176470588" fill="#000000" /><circle cx="48.55882352941176" cy="229.5392156862745" r="2.852941176470588" fill="#000000" /><circle cx="56.166666666666664" cy="229.5392156862745" r="2.852941176470588" fill="#000000" /><circle cx="69.77450980392156" cy="229.5392156862745" r="2.852941176470588" fill="#000000" /><circle cx="77.38235294117646" cy="229.5392156862745" r="2.852941176470588" fill="#000000" /><circle cx="107.81372549019606" cy="229.5392156862745" r="2.852941176470588" fill="#000000" /><circle cx="153.4607843137255" cy="229.5392156862745" r="2.852941176470588" fill="#000000" /><circle cx="161.0686274509804" cy="229.5392156862745" r="2.852941176470588" fill="#000000" /><circle cx="168.6764705882353" cy="229.5392156862745" r="2.852941176470588" fill="#000000" /><circle cx="199.1078431372549" cy="229.5392156862745" r="2.852941176470588" fill="#000000" /><circle cx="206.7156862745098" cy="229.5392156862745" r="2.852941176470588" fill="#000000" /><circle cx="214.3235294117647" cy="229.5392156862745" r="2.852941176470588" fill="#000000" /><circle cx="221.9313725490196" cy="229.5392156862745" r="2.852941176470588" fill="#000000" /><circle cx="237.14705882352942" cy="229.5392156862745" r="2.852941176470588" fill="#000000" /><circle cx="244.7549019607843" cy="229.5392156862745" r="2.852941176470588" fill="#000000" /><circle cx="275.1862745098039" cy="229.5392156862745" r="2.852941176470588" fill="#000000" /><circle cx="282.79411764705884" cy="229.5392156862745" r="2.852941176470588" fill="#000000" /><circle cx="290.4019607843137" cy="229.5392156862745" r="2.852941176470588" fill="#000000" /><circle cx="326.8333333333333" cy="229.5392156862745" r="2.852941176470588" fill="#000000" /><circle cx="334.44117647058823" cy="229.5392156862745" r="2.852941176470588" fill="#000000" /><circle cx="349.656862745098" cy="229.5392156862745" r="2.852941176470588" fill="#000000" /><circle cx="357.2647058823529" cy="229.5392156862745" r="2.852941176470588" fill="#000000" /><circle cx="33.34313725490196" cy="237.14705882352942" r="2.852941176470588" fill="#000000" /><circle cx="56.166666666666664" cy="237.14705882352942" r="2.852941176470588" fill="#000000" /><circle cx="69.77450980392156" cy="237.14705882352942" r="2.852941176470588" fill="#000000" /><circle cx="84.99019607843137" cy="237.14705882352942" r="2.852941176470588" fill="#000000" /><circle cx="100.20588235294116" cy="237.14705882352942" r="2.852941176470588" fill="#000000" /><circle cx="107.81372549019606" cy="237.14705882352942" r="2.852941176470588" fill="#000000" /><circle cx="115.42156862745097" cy="237.14705882352942" r="2.852941176470588" fill="#000000" /><circle cx="123.02941176470587" cy="237.14705882352942" r="2.852941176470588" fill="#000000" /><circle cx="130.63725490196077" cy="237.14705882352942" r="2.852941176470588" fill="#000000" /><circle cx="138.2450980392157" cy="237.14705882352942" r="2.852941176470588" fill="#000000" /><circle cx="145.85294117647058" cy="237.14705882352942" r="2.852941176470588" fill="#000000" /><circle cx="161.0686274509804" cy="237.14705882352942" r="2.852941176470588" fill="#000000" /><circle cx="168.6764705882353" cy="237.14705882352942" r="2.852941176470588" fill="#000000" /><circle cx="183.89215686274508" cy="237.14705882352942" r="2.852941176470588" fill="#000000" /><circle cx="206.7156862745098" cy="237.14705882352942" r="2.852941176470588" fill="#000000" /><circle cx="221.9313725490196" cy="237.14705882352942" r="2.852941176470588" fill="#000000" /><circle cx="229.5392156862745" cy="237.14705882352942" r="2.852941176470588" fill="#000000" /><circle cx="252.36274509803917" cy="237.14705882352942" r="2.852941176470588" fill="#000000" /><circle cx="282.79411764705884" cy="237.14705882352942" r="2.852941176470588" fill="#000000" /><circle cx="298.0098039215686" cy="237.14705882352942" r="2.852941176470588" fill="#000000" /><circle cx="305.61764705882354" cy="237.14705882352942" r="2.852941176470588" fill="#000000" /><circle cx="33.34313725490196" cy="244.7549019607843" r="2.852941176470588" fill="#000000" /><circle cx="48.55882352941176" cy="244.7549019607843" r="2.852941176470588" fill="#000000" /><circle cx="69.77450980392156" cy="244.7549019607843" r="2.852941176470588" fill="#000000" /><circle cx="84.99019607843137" cy="244.7549019607843" r="2.852941176470588" fill="#000000" /><circle cx="107.81372549019606" cy="244.7549019607843" r="2.852941176470588" fill="#000000" /><circle cx="130.63725490196077" cy="244.7549019607843" r="2.852941176470588" fill="#000000" /><circle cx="138.2450980392157" cy="244.7549019607843" r="2.852941176470588" fill="#000000" /><circle cx="145.85294117647058" cy="244.7549019607843" r="2.852941176470588" fill="#000000" /><circle cx="161.0686274509804" cy="244.7549019607843" r="2.852941176470588" fill="#000000" /><circle cx="176.2843137254902" cy="244.7549019607843" r="2.852941176470588" fill="#000000" /><circle cx="183.89215686274508" cy="244.7549019607843" r="2.852941176470588" fill="#000000" /><circle cx="199.1078431372549" cy="244.7549019607843" r="2.852941176470588" fill="#000000" /><circle cx="214.3235294117647" cy="244.7549019607843" r="2.852941176470588" fill="#000000" /><circle cx="221.9313725490196" cy="244.7549019607843" r="2.852941176470588" fill="#000000" /><circle cx="252.36274509803917" cy="244.7549019607843" r="2.852941176470588" fill="#000000" /><circle cx="275.1862745098039" cy="244.7549019607843" r="2.852941176470588" fill="#000000" /><circle cx="282.79411764705884" cy="244.7549019607843" r="2.852941176470588" fill="#000000" /><circle cx="290.4019607843137" cy="244.7549019607843" r="2.852941176470588" fill="#000000" /><circle cx="298.0098039215686" cy="244.7549019607843" r="2.852941176470588" fill="#000000" /><circle cx="313.2254901960784" cy="244.7549019607843" r="2.852941176470588" fill="#000000" /><circle cx="326.8333333333333" cy="244.7549019607843" r="2.852941176470588" fill="#000000" /><circle cx="349.656862745098" cy="244.7549019607843" r="2.852941176470588" fill="#000000" /><circle cx="33.34313725490196" cy="252.36274509803917" r="2.852941176470588" fill="#000000" /><circle cx="40.95098039215686" cy="252.36274509803917" r="2.852941176470588" fill="#000000" /><circle cx="56.166666666666664" cy="252.36274509803917" r="2.852941176470588" fill="#000000" /><circle cx="69.77450980392156" cy="252.36274509803917" r="2.852941176470588" fill="#000000" /><circle cx="77.38235294117646" cy="252.36274509803917" r="2.852941176470588" fill="#000000" /><circle cx="92.59803921568626" cy="252.36274509803917" r="2.852941176470588" fill="#000000" /><circle cx="100.20588235294116" cy="252.36274509803917" r="2.852941176470588" fill="#000000" /><circle cx="115.42156862745097" cy="252.36274509803917" r="2.852941176470588" fill="#000000" /><circle cx="123.02941176470587" cy="252.36274509803917" r="2.852941176470588" fill="#000000" /><circle cx="130.63725490196077" cy="252.36274509803917" r="2.852941176470588" fill="#000000" /><circle cx="138.2450980392157" cy="252.36274509803917" r="2.852941176470588" fill="#000000" /><circle cx="153.4607843137255" cy="252.36274509803917" r="2.852941176470588" fill="#000000" /><circle cx="161.0686274509804" cy="252.36274509803917" r="2.852941176470588" fill="#000000" /><circle cx="176.2843137254902" cy="252.36274509803917" r="2.852941176470588" fill="#000000" /><circle cx="206.7156862745098" cy="252.36274509803917" r="2.852941176470588" fill="#000000" /><circle cx="214.3235294117647" cy="252.36274509803917" r="2.852941176470588" fill="#000000" /><circle cx="229.5392156862745" cy="252.36274509803917" r="2.852941176470588" fill="#000000" /><circle cx="252.36274509803917" cy="252.36274509803917" r="2.852941176470588" fill="#000000" /><circle cx="259.9705882352941" cy="252.36274509803917" r="2.852941176470588" fill="#000000" /><circle cx="267.578431372549" cy="252.36274509803917" r="2.852941176470588" fill="#000000" /><circle cx="275.1862745098039" cy="252.36274509803917" r="2.852941176470588" fill="#000000" /><circle cx="282.79411764705884" cy="252.36274509803917" r="2.852941176470588" fill="#000000" /><circle cx="290.4019607843137" cy="252.36274509803917" r="2.852941176470588" fill="#000000" /><circle cx="326.8333333333333" cy="252.36274509803917" r="2.852941176470588" fill="#000000" /><circle cx="334.44117647058823" cy="252.36274509803917" r="2.852941176470588" fill="#000000" /><circle cx="342.04901960784315" cy="252.36274509803917" r="2.852941176470588" fill="#000000" /><circle cx="33.34313725490196" cy="259.9705882352941" r="2.852941176470588" fill="#000000" /><circle cx="40.95098039215686" cy="259.9705882352941" r="2.852941176470588" fill="#000000" /><circle cx="48.55882352941176" cy="259.9705882352941" r="2.852941176470588" fill="#000000" /><circle cx="56.166666666666664" cy="259.9705882352941" r="2.852941176470588" fill="#000000" /><circle cx="130.63725490196077" cy="259.9705882352941" r="2.852941176470588" fill="#000000" /><circle cx="161.0686274509804" cy="259.9705882352941" r="2.852941176470588" fill="#000000" /><circle cx="191.5" cy="259.9705882352941" r="2.852941176470588" fill="#000000" /><circle cx="206.7156862745098" cy="259.9705882352941" r="2.852941176470588" fill="#000000" /><circle cx="214.3235294117647" cy="259.9705882352941" r="2.852941176470588" fill="#000000" /><circle cx="252.36274509803917" cy="259.9705882352941" r="2.852941176470588" fill="#000000" /><circle cx="282.79411764705884" cy="259.9705882352941" r="2.852941176470588" fill="#000000" /><circle cx="290.4019607843137" cy="259.9705882352941" r="2.852941176470588" fill="#000000" /><circle cx="313.2254901960784" cy="259.9705882352941" r="2.852941176470588" fill="#000000" /><circle cx="326.8333333333333" cy="259.9705882352941" r="2.852941176470588" fill="#000000" /><circle cx="40.95098039215686" cy="267.578431372549" r="2.852941176470588" fill="#000000" /><circle cx="48.55882352941176" cy="267.578431372549" r="2.852941176470588" fill="#000000" /><circle cx="56.166666666666664" cy="267.578431372549" r="2.852941176470588" fill="#000000" /><circle cx="153.4607843137255" cy="267.578431372549" r="2.852941176470588" fill="#000000" /><circle cx="183.89215686274508" cy="267.578431372549" r="2.852941176470588" fill="#000000" /><circle cx="199.1078431372549" cy="267.578431372549" r="2.852941176470588" fill="#000000" /><circle cx="221.9313725490196" cy="267.578431372549" r="2.852941176470588" fill="#000000" /><circle cx="229.5392156862745" cy="267.578431372549" r="2.852941176470588" fill="#000000" /><circle cx="244.7549019607843" cy="267.578431372549" r="2.852941176470588" fill="#000000" /><circle cx="252.36274509803917" cy="267.578431372549" r="2.852941176470588" fill="#000000" /><circle cx="267.578431372549" cy="267.578431372549" r="2.852941176470588" fill="#000000" /><circle cx="282.79411764705884" cy="267.578431372549" r="2.852941176470588" fill="#000000" /><circle cx="290.4019607843137" cy="267.578431372549" r="2.852941176470588" fill="#000000" /><circle cx="305.61764705882354" cy="267.578431372549" r="2.852941176470588" fill="#000000" /><circle cx="326.8333333333333" cy="267.578431372549" r="2.852941176470588" fill="#000000" /><circle cx="40.95098039215686" cy="275.1862745098039" r="2.852941176470588" fill="#000000" /><circle cx="48.55882352941176" cy="275.1862745098039" r="2.852941176470588" fill="#000000" /><circle cx="130.63725490196077" cy="275.1862745098039" r="2.852941176470588" fill="#000000" /><circle cx="145.85294117647058" cy="275.1862745098039" r="2.852941176470588" fill="#000000" /><circle cx="161.0686274509804" cy="275.1862745098039" r="2.852941176470588" fill="#000000" /><circle cx="168.6764705882353" cy="275.1862745098039" r="2.852941176470588" fill="#000000" /><circle cx="176.2843137254902" cy="275.1862745098039" r="2.852941176470588" fill="#000000" /><circle cx="183.89215686274508" cy="275.1862745098039" r="2.852941176470588" fill="#000000" /><circle cx="199.1078431372549" cy="275.1862745098039" r="2.852941176470588" fill="#000000" /><circle cx="221.9313725490196" cy="275.1862745098039" r="2.852941176470588" fill="#000000" /><circle cx="252.36274509803917" cy="275.1862745098039" r="2.852941176470588" fill="#000000" /><circle cx="282.79411764705884" cy="275.1862745098039" r="2.852941176470588" fill="#000000" /><circle cx="290.4019607843137" cy="275.1862745098039" r="2.852941176470588" fill="#000000" /><circle cx="298.0098039215686" cy="275.1862745098039" r="2.852941176470588" fill="#000000" /><circle cx="305.61764705882354" cy="275.1862745098039" r="2.852941176470588" fill="#000000" /><circle cx="342.04901960784315" cy="275.1862745098039" r="2.852941176470588" fill="#000000" /><circle cx="48.55882352941176" cy="282.79411764705884" r="2.852941176470588" fill="#000000" /><circle cx="56.166666666666664" cy="282.79411764705884" r="2.852941176470588" fill="#000000" /><circle cx="138.2450980392157" cy="282.79411764705884" r="2.852941176470588" fill="#000000" /><circle cx="145.85294117647058" cy="282.79411764705884" r="2.852941176470588" fill="#000000" /><circle cx="191.5" cy="282.79411764705884" r="2.852941176470588" fill="#000000" /><circle cx="206.7156862745098" cy="282.79411764705884" r="2.852941176470588" fill="#000000" /><circle cx="214.3235294117647" cy="282.79411764705884" r="2.852941176470588" fill="#000000" /><circle cx="229.5392156862745" cy="282.79411764705884" r="2.852941176470588" fill="#000000" /><circle cx="252.36274509803917" cy="282.79411764705884" r="2.852941176470588" fill="#000000" /><circle cx="259.9705882352941" cy="282.79411764705884" r="2.852941176470588" fill="#000000" /><circle cx="267.578431372549" cy="282.79411764705884" r="2.852941176470588" fill="#000000" /><circle cx="275.1862745098039" cy="282.79411764705884" r="2.852941176470588" fill="#000000" /><circle cx="282.79411764705884" cy="282.79411764705884" r="2.852941176470588" fill="#000000" /><circle cx="305.61764705882354" cy="282.79411764705884" r="2.852941176470588" fill="#000000" /><circle cx="313.2254901960784" cy="282.79411764705884" r="2.852941176470588" fill="#000000" /><circle cx="326.8333333333333" cy="282.79411764705884" r="2.852941176470588" fill="#000000" /><circle cx="48.55882352941176" cy="290.4019607843137" r="2.852941176470588" fill="#000000" /><circle cx="56.166666666666664" cy="290.4019607843137" r="2.852941176470588" fill="#000000" /><circle cx="138.2450980392157" cy="290.4019607843137" r="2.852941176470588" fill="#000000" /><circle cx="145.85294117647058" cy="290.4019607843137" r="2.852941176470588" fill="#000000" /><circle cx="153.4607843137255" cy="290.4019607843137" r="2.852941176470588" fill="#000000" /><circle cx="161.0686274509804" cy="290.4019607843137" r="2.852941176470588" fill="#000000" /><circle cx="183.89215686274508" cy="290.4019607843137" r="2.852941176470588" fill="#000000" /><circle cx="191.5" cy="290.4019607843137" r="2.852941176470588" fill="#000000" /><circle cx="199.1078431372549" cy="290.4019607843137" r="2.852941176470588" fill="#000000" /><circle cx="221.9313725490196" cy="290.4019607843137" r="2.852941176470588" fill="#000000" /><circle cx="237.14705882352942" cy="290.4019607843137" r="2.852941176470588" fill="#000000" /><circle cx="252.36274509803917" cy="290.4019607843137" r="2.852941176470588" fill="#000000" /><circle cx="259.9705882352941" cy="290.4019607843137" r="2.852941176470588" fill="#000000" /><circle cx="275.1862745098039" cy="290.4019607843137" r="2.852941176470588" fill="#000000" /><circle cx="282.79411764705884" cy="290.4019607843137" r="2.852941176470588" fill="#000000" /><circle cx="313.2254901960784" cy="290.4019607843137" r="2.852941176470588" fill="#000000" /><circle cx="326.8333333333333" cy="290.4019607843137" r="2.852941176470588" fill="#000000" /><circle cx="56.166666666666664" cy="298.0098039215686" r="2.852941176470588" fill="#000000" /><circle cx="138.2450980392157" cy="298.0098039215686" r="2.852941176470588" fill="#000000" /><circle cx="153.4607843137255" cy="298.0098039215686" r="2.852941176470588" fill="#000000" /><circle cx="183.89215686274508" cy="298.0098039215686" r="2.852941176470588" fill="#000000" /><circle cx="199.1078431372549" cy="298.0098039215686" r="2.852941176470588" fill="#000000" /><circle cx="214.3235294117647" cy="298.0098039215686" r="2.852941176470588" fill="#000000" /><circle cx="229.5392156862745" cy="298.0098039215686" r="2.852941176470588" fill="#000000" /><circle cx="244.7549019607843" cy="298.0098039215686" r="2.852941176470588" fill="#000000" /><circle cx="252.36274509803917" cy="298.0098039215686" r="2.852941176470588" fill="#000000" /><circle cx="282.79411764705884" cy="298.0098039215686" r="2.852941176470588" fill="#000000" /><circle cx="290.4019607843137" cy="298.0098039215686" r="2.852941176470588" fill="#000000" /><circle cx="298.0098039215686" cy="298.0098039215686" r="2.852941176470588" fill="#000000" /><circle cx="305.61764705882354" cy="298.0098039215686" r="2.852941176470588" fill="#000000" /><circle cx="313.2254901960784" cy="298.0098039215686" r="2.852941176470588" fill="#000000" /><circle cx="326.8333333333333" cy="298.0098039215686" r="2.852941176470588" fill="#000000" /><circle cx="138.2450980392157" cy="305.61764705882354" r="2.852941176470588" fill="#000000" /><circle cx="153.4607843137255" cy="305.61764705882354" r="2.852941176470588" fill="#000000" /><circle cx="161.0686274509804" cy="305.61764705882354" r="2.852941176470588" fill="#000000" /><circle cx="199.1078431372549" cy="305.61764705882354" r="2.852941176470588" fill="#000000" /><circle cx="214.3235294117647" cy="305.61764705882354" r="2.852941176470588" fill="#000000" /><circle cx="221.9313725490196" cy="305.61764705882354" r="2.852941176470588" fill="#000000" /><circle cx="237.14705882352942" cy="305.61764705882354" r="2.852941176470588" fill="#000000" /><circle cx="290.4019607843137" cy="305.61764705882354" r="2.852941176470588" fill="#000000" /><circle cx="298.0098039215686" cy="305.61764705882354" r="2.852941176470588" fill="#000000" /><circle cx="138.2450980392157" cy="313.2254901960784" r="2.852941176470588" fill="#000000" /><circle cx="145.85294117647058" cy="313.2254901960784" r="2.852941176470588" fill="#000000" /><circle cx="153.4607843137255" cy="313.2254901960784" r="2.852941176470588" fill="#000000" /><circle cx="168.6764705882353" cy="313.2254901960784" r="2.852941176470588" fill="#000000" /><circle cx="191.5" cy="313.2254901960784" r="2.852941176470588" fill="#000000" /><circle cx="199.1078431372549" cy="313.2254901960784" r="2.852941176470588" fill="#000000" /><circle cx="229.5392156862745" cy="313.2254901960784" r="2.852941176470588" fill="#000000" /><circle cx="244.7549019607843" cy="313.2254901960784" r="2.852941176470588" fill="#000000" /><circle cx="252.36274509803917" cy="313.2254901960784" r="2.852941176470588" fill="#000000" /><circle cx="259.9705882352941" cy="313.2254901960784" r="2.852941176470588" fill="#000000" /><circle cx="267.578431372549" cy="313.2254901960784" r="2.852941176470588" fill="#000000" /><circle cx="305.61764705882354" cy="313.2254901960784" r="2.852941176470588" fill="#000000" /><circle cx="84.99019607843137" cy="326.8333333333333" r="2.852941176470588" fill="#000000" /><circle cx="92.59803921568626" cy="326.8333333333333" r="2.852941176470588" fill="#000000" /><circle cx="115.42156862745097" cy="326.8333333333333" r="2.852941176470588" fill="#000000" /><circle cx="123.02941176470587" cy="326.8333333333333" r="2.852941176470588" fill="#000000" /><circle cx="161.0686274509804" cy="326.8333333333333" r="2.852941176470588" fill="#000000" /><circle cx="168.6764705882353" cy="326.8333333333333" r="2.852941176470588" fill="#000000" /><circle cx="183.89215686274508" cy="326.8333333333333" r="2.852941176470588" fill="#000000" /><circle cx="206.7156862745098" cy="326.8333333333333" r="2.852941176470588" fill="#000000" /><circle cx="214.3235294117647" cy="326.8333333333333" r="2.852941176470588" fill="#000000" /><circle cx="221.9313725490196" cy="326.8333333333333" r="2.852941176470588" fill="#000000" /><circle cx="229.5392156862745" cy="326.8333333333333" r="2.852941176470588" fill="#000000" /><circle cx="252.36274509803917" cy="326.8333333333333" r="2.852941176470588" fill="#000000" /><circle cx="267.578431372549" cy="326.8333333333333" r="2.852941176470588" fill="#000000" /><circle cx="275.1862745098039" cy="326.8333333333333" r="2.852941176470588" fill="#000000" /><circle cx="107.81372549019606" cy="334.44117647058823" r="2.852941176470588" fill="#000000" /><circle cx="130.63725490196077" cy="334.44117647058823" r="2.852941176470588" fill="#000000" /><circle cx="153.4607843137255" cy="334.44117647058823" r="2.852941176470588" fill="#000000" /><circle cx="161.0686274509804" cy="334.44117647058823" r="2.852941176470588" fill="#000000" /><circle cx="183.89215686274508" cy="334.44117647058823" r="2.852941176470588" fill="#000000" /><circle cx="191.5" cy="334.44117647058823" r="2.852941176470588" fill="#000000" /><circle cx="206.7156862745098" cy="334.44117647058823" r="2.852941176470588" fill="#000000" /><circle cx="214.3235294117647" cy="334.44117647058823" r="2.852941176470588" fill="#000000" /><circle cx="221.9313725490196" cy="334.44117647058823" r="2.852941176470588" fill="#000000" /><circle cx="229.5392156862745" cy="334.44117647058823" r="2.852941176470588" fill="#000000" /><circle cx="237.14705882352942" cy="334.44117647058823" r="2.852941176470588" fill="#000000" /><circle cx="244.7549019607843" cy="334.44117647058823" r="2.852941176470588" fill="#000000" /><circle cx="275.1862745098039" cy="334.44117647058823" r="2.852941176470588" fill="#000000" /><circle cx="282.79411764705884" cy="334.44117647058823" r="2.852941176470588" fill="#000000" /><circle cx="115.42156862745097" cy="342.04901960784315" r="2.852941176470588" fill="#000000" /><circle cx="138.2450980392157" cy="342.04901960784315" r="2.852941176470588" fill="#000000" /><circle cx="145.85294117647058" cy="342.04901960784315" r="2.852941176470588" fill="#000000" /><circle cx="168.6764705882353" cy="342.04901960784315" r="2.852941176470588" fill="#000000" /><circle cx="176.2843137254902" cy="342.04901960784315" r="2.852941176470588" fill="#000000" /><circle cx="191.5" cy="342.04901960784315" r="2.852941176470588" fill="#000000" /><circle cx="206.7156862745098" cy="342.04901960784315" r="2.852941176470588" fill="#000000" /><circle cx="214.3235294117647" cy="342.04901960784315" r="2.852941176470588" fill="#000000" /><circle cx="221.9313725490196" cy="342.04901960784315" r="2.852941176470588" fill="#000000" /><circle cx="229.5392156862745" cy="342.04901960784315" r="2.852941176470588" fill="#000000" /><circle cx="267.578431372549" cy="342.04901960784315" r="2.852941176470588" fill="#000000" /><circle cx="275.1862745098039" cy="342.04901960784315" r="2.852941176470588" fill="#000000" /><circle cx="123.02941176470587" cy="349.656862745098" r="2.852941176470588" fill="#000000" /><circle cx="176.2843137254902" cy="349.656862745098" r="2.852941176470588" fill="#000000" /><circle cx="183.89215686274508" cy="349.656862745098" r="2.852941176470588" fill="#000000" /><circle cx="206.7156862745098" cy="349.656862745098" r="2.852941176470588" fill="#000000" /></g><svg xmlns="http://www.w3.org/2000/svg" xmlns:xlink="http://www.w3.org/1999/xlink" version="1.1" x="65.97058823529412" y="263.77450980392155" width="53.25490196078431" height="53.25490196078431"><rect width="100%" height="100%" fill="#ffffff" shape-rendering="crispEdges"/><defs><clipPath id="eyeClip455"><rect x="0" y="0" width='53.25490196078431' height='43.745098039215684'/></clipPath></defs><rect clip-path="url(#eyeClip455)" x="3.994117647058823" y="3.994117647058823" width='45.266666666666666' height='45.266666666666666' shape-rendering='crispEdges' fill="#ffffff" stroke="#000000" stroke-width='7.988235294117646'/><svg x="0" y="46.72741013262274" width="53.25490196078431" height="6.527491828161569" viewBox="3.1875 15.74431818181818 414.51022727272715 50.80681818181818"><path  fill="#000000" stroke="#000000" d="M16.61 65.88L3.19 65.88L3.19 16.42L37.96 16.42L37.96 27.24L16.61 27.24L16.61 35.74L35.84 35.74L35.84 46.56L16.61 46.56L16.61 65.88ZM79.71 65.88L46.29 65.88L46.29 16.42L59.71 16.42L59.71 55.06L79.71 55.06L79.71 65.88ZM134.49 41.15L134.49 41.15Q134.49 49.41 131.28 55.07Q128.07 60.73 122.61 63.64Q117.16 66.55 110.44 66.55L110.44 66.55Q103.68 66.55 98.24 63.62Q92.79 60.68 89.59 55.02Q86.39 49.36 86.39 41.15L86.39 41.15Q86.39 32.89 89.59 27.23Q92.79 21.56 98.24 18.65Q103.68 15.74 110.44 15.74L110.44 15.74Q117.16 15.74 122.61 18.65Q128.07 21.56 131.28 27.23Q134.49 32.89 134.49 41.15ZM120.68 41.15L120.68 41.15Q120.68 36.70 119.51 33.65Q118.34 30.60 116.06 29.01Q113.77 27.43 110.44 27.43L110.44 27.43Q107.11 27.43 104.83 29.01Q102.55 30.60 101.37 33.65Q100.20 36.70 100.20 41.15L100.20 41.15Q100.20 45.59 101.37 48.65Q102.55 51.70 104.83 53.28Q107.11 54.86 110.44 54.86L110.44 54.86Q113.77 54.86 116.06 53.28Q118.34 51.70 119.51 48.65Q120.68 45.59 120.68 41.15ZM166.39 65.88L153.54 65.88L138.96 16.42L153.93 16.42L160.69 46.85L161.07 46.85L169.09 16.42L180.88 16.42L188.89 46.94L189.28 46.94L196.04 16.42L211.01 16.42L196.43 65.88L183.58 65.88L175.18 38.25L174.79 38.25L166.39 65.88ZM261.84 34.97L261.84 34.97L248.22 34.97Q248.07 33.28 247.46 31.90Q246.84 30.52 245.77 29.52Q244.69 28.52 243.17 27.98Q241.65 27.43 239.72 27.43L239.72 27.43Q236.34 27.43 234.01 29.07Q231.68 30.72 230.48 33.78Q229.29 36.85 229.29 41.15L229.29 41.15Q229.29 45.69 230.51 48.74Q231.73 51.80 234.04 53.33Q236.36 54.86 239.62 54.86L239.62 54.86Q241.48 54.86 242.96 54.39Q244.43 53.92 245.51 53.03Q246.60 52.13 247.29 50.87Q247.98 49.60 248.22 48.01L248.22 48.01L261.84 48.10Q261.60 51.24 260.08 54.49Q258.55 57.74 255.77 60.48Q252.98 63.22 248.87 64.88Q244.77 66.55 239.33 66.55L239.33 66.55Q232.52 66.55 227.13 63.63Q221.73 60.71 218.60 55.03Q215.47 49.36 215.47 41.15L215.47 41.15Q215.47 32.89 218.66 27.23Q221.85 21.56 227.26 18.65Q232.67 15.74 239.33 15.74L239.33 15.74Q244.02 15.74 247.95 17.02Q251.89 18.30 254.86 20.75Q257.83 23.21 259.64 26.78Q261.45 30.35 261.84 34.97ZM319.23 41.15L319.23 41.15Q319.23 49.41 316.02 55.07Q312.81 60.73 307.35 63.64Q301.89 66.55 295.18 66.55L295.18 66.55Q288.42 66.55 282.98 63.62Q277.53 60.68 274.33 55.02Q271.13 49.36 271.13 41.15L271.13 41.15Q271.13 32.89 274.33 27.23Q277.53 21.56 282.98 18.65Q288.42 15.74 295.18 15.74L295.18 15.74Q301.89 15.74 307.35 18.65Q312.81 21.56 316.02 27.23Q319.23 32.89 319.23 41.15ZM305.42 41.15L305.42 41.15Q305.42 36.70 304.25 33.65Q303.08 30.60 300.80 29.01Q298.51 27.43 295.18 27.43L295.18 27.43Q291.85 27.43 289.57 29.01Q287.29 30.60 286.11 33.65Q284.94 36.70 284.94 41.15L284.94 41.15Q284.94 45.59 286.11 48.65Q287.29 51.70 289.57 53.28Q291.85 54.86 295.18 54.86L295.18 54.86Q298.51 54.86 300.80 53.28Q303.08 51.70 304.25 48.65Q305.42 45.59 305.42 41.15ZM347.84 65.88L347.84 65.88L328.81 65.88L328.81 16.42L347.65 16.42Q355.28 16.42 360.85 19.38Q366.41 22.34 369.44 27.88Q372.47 33.42 372.47 41.15L372.47 41.15Q372.47 48.88 369.46 54.42Q366.44 59.96 360.91 62.92Q355.38 65.88 347.84 65.88ZM342.24 27.82L342.24 54.48L347.36 54.48Q351.03 54.48 353.63 53.29Q356.22 52.11 357.59 49.21Q358.95 46.32 358.95 41.15L358.95 41.15Q358.95 35.98 357.56 33.08Q356.17 30.18 353.51 29.00Q350.84 27.82 346.97 27.82L346.97 27.82L342.24 27.82ZM417.60 65.88L382.06 65.88L382.06 16.42L417.70 16.42L417.70 27.24L395.48 27.24L395.48 35.74L415.86 35.74L415.86 46.56L395.48 46.56L395.48 55.06L417.60 55.06L417.60 65.88Z"/></svg><rect x='14.645098039215686' y='14.645098039215686' width='23.964705882352938' shape-rendering='crispEdges' height='23.964705882352938' fill="#000000" /></svg><svg xmlns="http://www.w3.org/2000/svg" xmlns:xlink="http://www.w3.org/1999/xlink" version="1.1" x="65.97058823529412" y="65.97058823529412" width="53.25490196078431" height="53.25490196078431"><rect width="100%" height="100%" fill="#ffffff" shape-rendering="crispEdges"/><rect x="3.994117647058823" y="3.994117647058823" width='45.266666666666666' height='45.266666666666666' shape-rendering='crispEdges' fill="#ffffff" stroke="#000000" stroke-width='7.988235294117646'/><rect x='14.645098039215686' y='14.645098039215686' width='23.964705882352938' shape-rendering='crispEdges' height='23.964705882352938' fill="#000000" /></svg><svg xmlns="http://www.w3.org/2000/svg" xmlns:xlink="http://www.w3.org/1999/xlink" version="1.1" x="263.77450980392155" y="65.97058823529412" width="53.25490196078431" height="53.25490196078431"><rect width="100%" height="100%" fill="#ffffff" shape-rendering="crispEdges"/><rect x="3.994117647058823" y="3.994117647058823" width='45.266666666666666' height='45.266666666666666' shape-rendering='crispEdges' fill="#ffffff" stroke="#000000" stroke-width='7.988235294117646'/><rect x='14.645098039215686' y='14.645098039215686' width='23.964705882352938' shape-rendering='crispEdges' height='23.964705882352938' fill="#000000" /></svg><circle cx="191.5" cy="191.5" r="187.25" shape-rendering='geometricPrecision' stroke="#000000" stroke-width="8.5" fill="#ffffff" fill-opacity="0"/></svg></svg>